<?xml version="1.0" encoding="UTF-8" standalone="no"?><svg xmlns="http://www.w3.org/2000/svg" xmlns:xlink="http://www.w3.org/1999/xlink" contentStyleType="text/css" height="708px" preserveAspectRatio="none" style="width:389px;height:708px;background:#FFFFFF;" version="1.1" viewBox="0 0 389 708" width="389px" zoomAndPan="magnify"><defs/><g><!--MD5=[fee662a292a0353a69bd162820bae93b]
entity User--><g id="elem_User"><ellipse cx="34.5" cy="322" fill="#F1F1F1" rx="16" ry="16" style="stroke:#181818;stroke-width:1.5;"/><path d="M34.5,342 C38.5,342 41.5,342 45.5,338 C53.5,338 61.5,346 61.5,354 L61.5,358 C61.5,362 57.5,366 53.5,366 L15.5,366 C11.5,366 7.5,362 7.5,358 L7.5,354 C7.5,346 15.5,338 23.5,338 C27.5,342 30.5,342 34.5,342 " fill="#F1F1F1" style="stroke:#181818;stroke-width:1.5;"/><text fill="#000000" font-family="sans-serif" font-size="14" lengthAdjust="spacing" textLength="57" x="6" y="382.0332">Utilizador</text></g><g id="elem_UC1"><ellipse cx="253.5948" cy="31.219" fill="#F1F1F1" rx="114.0948" ry="25.219" style="stroke:#181818;stroke-width:0.5;"/><text fill="#000000" font-family="sans-serif" font-size="14" lengthAdjust="spacing" textLength="192" x="157.5948" y="34.9475">Consultar Acervo Museológico</text></g><g id="elem_UC2"><ellipse cx="253.5042" cy="114.0008" fill="#F1F1F1" rx="100.5042" ry="22.5008" style="stroke:#181818;stroke-width:0.5;"/><text fill="#000000" font-family="sans-serif" font-size="14" lengthAdjust="spacing" textLength="162" x="172.5042" y="117.7293">Doar ou transferir objetos</text></g><g id="elem_UC3"><ellipse cx="253.5894" cy="195.2179" fill="#F1F1F1" rx="104.0894" ry="23.2179" style="stroke:#181818;stroke-width:0.5;"/><text fill="#000000" font-family="sans-serif" font-size="14" lengthAdjust="spacing" textLength="170" x="168.5894" y="198.9464">Consultar Arquivo histórico</text></g><g id="elem_UC4"><ellipse cx="253.4297" cy="269.0784" fill="#F1F1F1" rx="59.4297" ry="15.5784" style="stroke:#181818;stroke-width:0.5;"/><text fill="#000000" font-family="sans-serif" font-size="14" lengthAdjust="spacing" textLength="67" x="216.9297" y="273.595">Fotografar</text></g><g id="elem_UC5"><ellipse cx="253.5948" cy="345.219" fill="#F1F1F1" rx="114.0948" ry="25.219" style="stroke:#181818;stroke-width:0.5;"/><text fill="#000000" font-family="sans-serif" font-size="14" lengthAdjust="spacing" textLength="192" x="157.5948" y="348.9475">Filmar no espaço museológico</text></g><g id="elem_UC6"><ellipse cx="253.3789" cy="423.8758" fill="#F1F1F1" rx="79.8789" ry="18.3758" style="stroke:#181818;stroke-width:0.5;"/><text fill="#000000" font-family="sans-serif" font-size="14" lengthAdjust="spacing" textLength="114" x="195.3373" y="427.9024">Requisitar objetos</text></g><g id="elem_UC7"><ellipse cx="253.4447" cy="506.1889" fill="#F1F1F1" rx="128.9447" ry="28.1889" style="stroke:#181818;stroke-width:0.5;"/><text fill="#000000" font-family="sans-serif" font-size="14" lengthAdjust="spacing" textLength="224" x="141.4447" y="509.9175">Consultar fundo bibliografico antigo</text></g><g id="elem_UC8"><ellipse cx="253.2628" cy="590.1526" fill="#F1F1F1" rx="91.2628" ry="20.6526" style="stroke:#181818;stroke-width:0.5;"/><text fill="#000000" font-family="sans-serif" font-size="14" lengthAdjust="spacing" textLength="141" x="182.7628" y="593.8811">Marcar visita de grupo</text></g><g id="elem_UC9"><ellipse cx="253.3511" cy="673.9702" fill="#F1F1F1" rx="130.3511" ry="28.4702" style="stroke:#181818;stroke-width:0.5;"/><text fill="#000000" font-family="sans-serif" font-size="14" lengthAdjust="spacing" textLength="227" x="139.8511" y="677.6987">Pesquisar base de dados do museu</text></g><!--MD5=[57bf3159251ba6d788e56222dd11fdd6]
link User to UC1--><g id="link_User_UC1"><path d="M37.49,304.23 C42.53,245.5 60.33,137.19 123,74 C133.64,63.27 147.02,55.22 161.11,49.18 " fill="none" id="User-to-UC1" style="stroke:#181818;stroke-width:1.0;"/><polygon fill="#181818" points="165.91,47.2,156.0652,46.9173,161.2845,49.0987,159.1032,54.3181,165.91,47.2" style="stroke:#181818;stroke-width:1.0;"/></g><!--MD5=[06ebee4cbbe132cc9038a23578b440b9]
link User to UC2--><g id="link_User_UC2"><path d="M43.76,304.41 C54.64,261.16 77.91,193.58 123,154 C135.66,142.89 151.37,134.86 167.43,129.06 " fill="none" id="User-to-UC2" style="stroke:#181818;stroke-width:1.0;"/><polygon fill="#181818" points="172.42,127.34,162.6057,126.5152,167.6969,128.9809,165.2312,134.0721,172.42,127.34" style="stroke:#181818;stroke-width:1.0;"/></g><!--MD5=[7128cd1693f5ac5e48a097ae8b02564a]
link User to UC3--><g id="link_User_UC3"><path d="M59.49,304.47 C74.99,281.44 97.07,253.76 123,236 C137.76,225.89 155.15,218.17 172.31,212.32 " fill="none" id="User-to-UC3" style="stroke:#181818;stroke-width:1.0;"/><polygon fill="#181818" points="177.14,210.71,167.3387,209.7436,172.3937,212.2826,169.8548,217.3376,177.14,210.71" style="stroke:#181818;stroke-width:1.0;"/></g><!--MD5=[4ce996a24f59d1a51dc827afbab411c4]
link User to UC4--><g id="link_User_UC4"><path d="M63.22,329.53 C80.11,320.58 102.35,309.61 123,302 C148.1,292.75 176.86,285.14 200.89,279.56 " fill="none" id="User-to-UC4" style="stroke:#181818;stroke-width:1.0;"/><polygon fill="#181818" points="205.94,278.41,196.2747,276.5175,201.0659,279.5249,198.0585,284.3161,205.94,278.41" style="stroke:#181818;stroke-width:1.0;"/></g><!--MD5=[ded8ba90975cb89afbb8aa34a82599c8]
link User to UC5--><g id="link_User_UC5"><path d="M63.42,345 C81.88,345 107.47,345 133.86,345 " fill="none" id="User-to-UC5" style="stroke:#181818;stroke-width:1.0;"/><polygon fill="#181818" points="139.15,345,130.15,341,134.15,345,130.15,349,139.15,345" style="stroke:#181818;stroke-width:1.0;"/></g><!--MD5=[c3cbf0c63ed82a5d0a0584885332cee8]
link User to UC6--><g id="link_User_UC6"><path d="M63.34,359.86 C80.28,368.51 102.52,379.22 123,387 C145.46,395.53 170.74,403.17 192.97,409.26 " fill="none" id="User-to-UC6" style="stroke:#181818;stroke-width:1.0;"/><polygon fill="#181818" points="197.96,410.62,190.3265,404.3967,193.1355,409.3068,188.2254,412.1159,197.96,410.62" style="stroke:#181818;stroke-width:1.0;"/></g><!--MD5=[5a2cfe3801774c699a4d0ee8e3ef548b]
link User to UC7--><g id="link_User_UC7"><path d="M58.03,385.5 C73.49,410.05 96.06,440.32 123,460 C135.46,469.1 149.9,476.54 164.51,482.58 " fill="none" id="User-to-UC7" style="stroke:#181818;stroke-width:1.0;"/><polygon fill="#181818" points="169.47,484.57,162.5993,477.5136,164.8276,482.713,159.6281,484.9414,169.47,484.57" style="stroke:#181818;stroke-width:1.0;"/></g><!--MD5=[5649d3ce8239eeeaf9383143c35c0b67]
link User to UC8--><g id="link_User_UC8"><path d="M42.18,385.84 C51.9,432.33 74.39,507.43 123,551 C136.58,563.18 153.85,571.55 171.31,577.32 " fill="none" id="User-to-UC8" style="stroke:#181818;stroke-width:1.0;"/><polygon fill="#181818" points="176.24,578.88,168.8539,572.365,171.4701,577.3805,166.4547,579.9968,176.24,578.88" style="stroke:#181818;stroke-width:1.0;"/></g><!--MD5=[dd61da65488dc98c118a5c0809430a5b]
link User to UC9--><g id="link_User_UC9"><path d="M36.98,385.59 C41.36,446.23 58.29,560.55 123,628 C132.42,637.81 144.06,645.54 156.47,651.62 " fill="none" id="User-to-UC9" style="stroke:#181818;stroke-width:1.0;"/><polygon fill="#181818" points="161.07,653.78,154.6264,646.3315,156.5449,651.6531,151.2233,653.5716,161.07,653.78" style="stroke:#181818;stroke-width:1.0;"/></g><!--MD5=[635f862c578baf32ff3d67e8be65f554]
@startuml UC_MUS_FUNC

left to right direction
skinparam actorStyle awesome


actor "Utilizador" as User

(Consultar Acervo Museológico) as UC1
(Doar ou transferir objetos) as UC2
(Consultar Arquivo histórico) as UC3	
(Fotografar) as UC4
(Filmar no espaço museológico) as UC5
(Requisitar objetos) as UC6
(Consultar fundo bibliografico antigo) as UC7
(Marcar visita de grupo) as UC8
(Pesquisar base de dados do museu) as UC9

User - -> UC1
User - -> UC2
User - -> UC3
User - -> UC4
User - -> UC5
User - -> UC6
User - -> UC7
User - -> UC8
User - -> UC9




@enduml

PlantUML version 1.2022.7(Mon Aug 22 18:01:30 WEST 2022)
(GPL source distribution)
Java Runtime: Java(TM) SE Runtime Environment
JVM: Java HotSpot(TM) 64-Bit Server VM
Default Encoding: UTF-8
Language: en
Country: GB
--></g></svg>