<?xml version="1.0" encoding="UTF-8" standalone="no"?><svg xmlns="http://www.w3.org/2000/svg" xmlns:xlink="http://www.w3.org/1999/xlink" contentStyleType="text/css" height="829px" preserveAspectRatio="none" style="width:1318px;height:829px;background:#FFFFFF;" version="1.1" viewBox="0 0 1318 829" width="1318px" zoomAndPan="magnify"><defs/><g><!--MD5=[32373ad3ae524760cf723f64b82b765b]
cluster Divisão de Documentação e Cultura--><g id="cluster_Divisão de Documentação e Cultura"><path d="M61,590 L312,590 A3.75,3.75 0 0 1 314.5,592.5 L321.5,613.6094 L322,613.6094 A2.5,2.5 0 0 1 324.5,616.1094 L324.5,721.5 A2.5,2.5 0 0 1 322,724 L61,724 A2.5,2.5 0 0 1 58.5,721.5 L58.5,592.5 A2.5,2.5 0 0 1 61,590 " fill="none" style="stroke:#000000;stroke-width:1.5;"/><line style="stroke:#000000;stroke-width:1.5;" x1="58.5" x2="321.5" y1="613.6094" y2="613.6094"/><text fill="#000000" font-family="sans-serif" font-size="14" font-weight="bold" lengthAdjust="spacing" textLength="250" x="62.5" y="606.5332">Divisão de Documentação e Cultura</text></g><!--MD5=[3e9bea1ac2e003185f8c4b6861bf1a33]
cluster Arquivo Intermediário--><g id="cluster_Arquivo Intermediário"><path d="M407.5,26 L561.5,26 A3.75,3.75 0 0 1 564,28.5 L571,49.6094 L1308.5,49.6094 A2.5,2.5 0 0 1 1311,52.1094 L1311,501.5 A2.5,2.5 0 0 1 1308.5,504 L407.5,504 A2.5,2.5 0 0 1 405,501.5 L405,28.5 A2.5,2.5 0 0 1 407.5,26 " fill="none" style="stroke:#000000;stroke-width:1.5;"/><line style="stroke:#000000;stroke-width:1.5;" x1="405" x2="571" y1="49.6094" y2="49.6094"/><text fill="#000000" font-family="sans-serif" font-size="14" font-weight="bold" lengthAdjust="spacing" textLength="153" x="409" y="42.5332">Arquivo Intermediário</text></g><!--MD5=[7673e0380a4f71a7aaa00c34392a9f2b]
cluster Arquivo Histórico--><g id="cluster_Arquivo Histórico"><path d="M512.5,558 L635.5,558 A3.75,3.75 0 0 1 638,560.5 L645,581.6094 L1177.5,581.6094 A2.5,2.5 0 0 1 1180,584.1094 L1180,764.5 A2.5,2.5 0 0 1 1177.5,767 L512.5,767 A2.5,2.5 0 0 1 510,764.5 L510,560.5 A2.5,2.5 0 0 1 512.5,558 " fill="none" style="stroke:#000000;stroke-width:1.5;"/><line style="stroke:#000000;stroke-width:1.5;" x1="510" x2="645" y1="581.6094" y2="581.6094"/><text fill="#000000" font-family="sans-serif" font-size="14" font-weight="bold" lengthAdjust="spacing" textLength="122" x="514" y="574.5332">Arquivo Histórico</text></g><!--MD5=[9d2921cc231062a54788bc1cda6fe6c7]
cluster Orgãos e Estruturas do ISEP--><g id="cluster_Orgãos e Estruturas do ISEP"><path d="M87.5,389 L286.5,389 A3.75,3.75 0 0 1 289,391.5 L296,412.6094 L296.5,412.6094 A2.5,2.5 0 0 1 299,415.1094 L299,520.5 A2.5,2.5 0 0 1 296.5,523 L87.5,523 A2.5,2.5 0 0 1 85,520.5 L85,391.5 A2.5,2.5 0 0 1 87.5,389 " fill="none" style="stroke:#000000;stroke-width:1.5;"/><line style="stroke:#000000;stroke-width:1.5;" x1="85" x2="296" y1="412.6094" y2="412.6094"/><text fill="#000000" font-family="sans-serif" font-size="14" font-weight="bold" lengthAdjust="spacing" textLength="198" x="89" y="405.5332">Orgãos e Estruturas do ISEP</text></g><!--MD5=[93d8b124344fdb2eafe755b06f5b8a9e]
cluster Arquivo Corrente--><g id="cluster_Arquivo Corrente"><path d="M8.5,239 L131.5,239 A3.75,3.75 0 0 1 134,241.5 L141,262.6094 L374.5,262.6094 A2.5,2.5 0 0 1 377,265.1094 L377,362.5 A2.5,2.5 0 0 1 374.5,365 L8.5,365 A2.5,2.5 0 0 1 6,362.5 L6,241.5 A2.5,2.5 0 0 1 8.5,239 " fill="none" style="stroke:#000000;stroke-width:1.5;"/><line style="stroke:#000000;stroke-width:1.5;" x1="6" x2="141" y1="262.6094" y2="262.6094"/><text fill="#000000" font-family="sans-serif" font-size="14" font-weight="bold" lengthAdjust="spacing" textLength="122" x="10" y="255.5332">Arquivo Corrente</text></g><!--MD5=[ddfb7ae3cfd5209b7676bfd54ae910c7]
cluster Arquivo--><g id="cluster_Arquivo"><path d="M90,6 L146,6 A3.75,3.75 0 0 1 148.5,8.5 L155.5,29.6094 L293,29.6094 A2.5,2.5 0 0 1 295.5,32.1094 L295.5,212.5 A2.5,2.5 0 0 1 293,215 L90,215 A2.5,2.5 0 0 1 87.5,212.5 L87.5,8.5 A2.5,2.5 0 0 1 90,6 " fill="none" style="stroke:#000000;stroke-width:1.5;"/><line style="stroke:#000000;stroke-width:1.5;" x1="87.5" x2="155.5" y1="29.6094" y2="29.6094"/><text fill="#000000" font-family="sans-serif" font-size="14" font-weight="bold" lengthAdjust="spacing" textLength="55" x="91.5" y="22.5332">Arquivo</text></g><!--MD5=[74ae13a03863147ae30e011dc1ccfa85]
entity coord--><g id="elem_coord"><ellipse cx="191.5" cy="644" fill="#F1F1F1" rx="16" ry="16" style="stroke:#181818;stroke-width:1.5;"/><path d="M191.5,664 C195.5,664 198.5,664 202.5,660 C210.5,660 218.5,668 218.5,676 L218.5,680 C218.5,684 214.5,688 210.5,688 L172.5,688 C168.5,688 164.5,684 164.5,680 L164.5,676 C164.5,668 172.5,660 180.5,660 C184.5,664 187.5,664 191.5,664 " fill="#F1F1F1" style="stroke:#181818;stroke-width:1.5;"/><text fill="#000000" font-family="sans-serif" font-size="14" lengthAdjust="spacing" textLength="84" x="149.5" y="704.0332">Coordenador</text></g><!--MD5=[ddd11e525373e477658aa9eb2bf4a840]
entity arquivo--><g id="elem_arquivo"><ellipse cx="614" cy="270" fill="#F1F1F1" rx="16" ry="16" style="stroke:#181818;stroke-width:1.5;"/><path d="M614,290 C618,290 621,290 625,286 C633,286 641,294 641,302 L641,306 C641,310 637,314 633,314 L595,314 C591,314 587,310 587,306 L587,302 C587,294 595,286 603,286 C607,290 610,290 614,290 " fill="#F1F1F1" style="stroke:#181818;stroke-width:1.5;"/><text fill="#000000" font-family="sans-serif" font-size="14" lengthAdjust="spacing" textLength="50" x="589" y="330.0332">Técnico</text></g><g id="elem_UseCase1"><ellipse cx="613.7516" cy="80.9503" fill="#F1F1F1" rx="82.7516" ry="18.9503" style="stroke:#181818;stroke-width:0.5;"/><text fill="#000000" font-family="sans-serif" font-size="14" lengthAdjust="spacing" textLength="121" x="553.2516" y="84.6788">Enviar documentos</text></g><g id="elem_UseCase2"><ellipse cx="614.2471" cy="389.0494" fill="#F1F1F1" rx="88.2471" ry="20.0494" style="stroke:#181818;stroke-width:0.5;"/><text fill="#000000" font-family="sans-serif" font-size="14" lengthAdjust="spacing" textLength="134" x="547.2471" y="392.7779">Consulta de arquivos</text></g><g id="elem_UseCase3"><ellipse cx="613.813" cy="465.7626" fill="#F1F1F1" rx="94.313" ry="21.2626" style="stroke:#181818;stroke-width:0.5;"/><text fill="#000000" font-family="sans-serif" font-size="14" lengthAdjust="spacing" textLength="148" x="539.813" y="469.4911">Requisição de arquivos</text></g><g id="elem_UseCase4"><ellipse cx="614.1171" cy="176.0234" fill="#F1F1F1" rx="193.1171" ry="41.0234" style="stroke:#181818;stroke-width:0.5;"/><text fill="#000000" font-family="sans-serif" font-size="14" lengthAdjust="spacing" textLength="292" x="466.1171" y="170.9472">Avaliar o estado de conservação dos arquivos</text><text fill="#000000" font-family="sans-serif" font-size="14" lengthAdjust="spacing" textLength="325" x="451.6171" y="188.5566">e reparar os que não se encontram em bom estado</text></g><g id="elem_UseCase5"><ellipse cx="1081.1405" cy="293.2281" fill="#F1F1F1" rx="214.1405" ry="45.2281" style="stroke:#181818;stroke-width:0.5;"/><text fill="#000000" font-family="sans-serif" font-size="14" lengthAdjust="spacing" textLength="401" x="880.6405" y="296.9566">Eliminar arquvios que tenham passado o prazo de conservação</text></g><!--MD5=[3e06231d37b675c0735e74005c636efa]
entity historico--><g id="elem_historico"><ellipse cx="614" cy="687" fill="#F1F1F1" rx="16" ry="16" style="stroke:#181818;stroke-width:1.5;"/><path d="M614,707 C618,707 621,707 625,703 C633,703 641,711 641,719 L641,723 C641,727 637,731 633,731 L595,731 C591,731 587,727 587,723 L587,719 C587,711 595,703 603,703 C607,707 610,707 614,707 " fill="#F1F1F1" style="stroke:#181818;stroke-width:1.5;"/><text fill="#000000" font-family="sans-serif" font-size="14" lengthAdjust="spacing" textLength="50" x="589" y="747.0332">Técnico</text></g><g id="elem_UseCase6"><ellipse cx="614.2471" cy="614.0494" fill="#F1F1F1" rx="88.2471" ry="20.0494" style="stroke:#181818;stroke-width:0.5;"/><text fill="#000000" font-family="sans-serif" font-size="14" lengthAdjust="spacing" textLength="134" x="547.2471" y="617.7779">Consulta de arquivos</text></g><g id="elem_UseCase9"><ellipse cx="1080.7516" cy="709.9503" fill="#F1F1F1" rx="82.7516" ry="18.9503" style="stroke:#181818;stroke-width:0.5;"/><text fill="#000000" font-family="sans-serif" font-size="14" lengthAdjust="spacing" textLength="121" x="1020.2516" y="713.6788">Enviar documentos</text></g><!--MD5=[a11f39c3ba6172ba37424a7763e6fa7f]
entity isep--><g id="elem_isep"><ellipse cx="191.5" cy="443" fill="#F1F1F1" rx="16" ry="16" style="stroke:#181818;stroke-width:1.5;"/><path d="M191.5,463 C195.5,463 198.5,463 202.5,459 C210.5,459 218.5,467 218.5,475 L218.5,479 C218.5,483 214.5,487 210.5,487 L172.5,487 C168.5,487 164.5,483 164.5,479 L164.5,475 C164.5,467 172.5,459 180.5,459 C184.5,463 187.5,463 191.5,463 " fill="#F1F1F1" style="stroke:#181818;stroke-width:1.5;"/><text fill="#000000" font-family="sans-serif" font-size="14" lengthAdjust="spacing" textLength="79" x="152" y="503.0332">Colaborador</text></g><g id="elem_UseCase7"><ellipse cx="191.4281" cy="311.7856" fill="#F1F1F1" rx="169.4281" ry="36.2856" style="stroke:#181818;stroke-width:0.5;"/><text fill="#000000" font-family="sans-serif" font-size="14" lengthAdjust="spacing" textLength="309" x="36.9281" y="315.5141">Atrubuir prazos de conservação aos documentos</text></g><!--MD5=[b86bf4eed7c8e55431642304fbc90c9b]
entity arq--><g id="elem_arq"><ellipse cx="191.5" cy="135" fill="#F1F1F1" rx="16" ry="16" style="stroke:#181818;stroke-width:1.5;"/><path d="M191.5,155 C195.5,155 198.5,155 202.5,151 C210.5,151 218.5,159 218.5,167 L218.5,171 C218.5,175 214.5,179 210.5,179 L172.5,179 C168.5,179 164.5,175 164.5,171 L164.5,167 C164.5,159 172.5,151 180.5,151 C184.5,155 187.5,155 191.5,155 " fill="#F1F1F1" style="stroke:#181818;stroke-width:1.5;"/><text fill="#000000" font-family="sans-serif" font-size="14" lengthAdjust="spacing" textLength="50" x="166.5" y="195.0332">Técnico</text></g><g id="elem_UseCase10"><ellipse cx="191.7471" cy="62.0494" fill="#F1F1F1" rx="88.2471" ry="20.0494" style="stroke:#181818;stroke-width:0.5;"/><text fill="#000000" font-family="sans-serif" font-size="14" lengthAdjust="spacing" textLength="134" x="124.7471" y="65.7779">Arquivar documentos</text></g><!--MD5=[965f88d10d76340232aeadcba220dee3]
link isep to UseCase1--><g id="link_isep_UseCase1"><path d="M231.39,457.77 C276.92,445.88 350.49,419.08 385,365 C399.84,341.74 378.66,137.61 397,117 C432.12,77.51 492.78,70.29 540.9,71.94 " fill="none" id="isep-UseCase1" style="stroke:#181818;stroke-width:1.0;"/></g><!--MD5=[673aeae4241482bb6dea1b16c0d96cb6]
link isep to UseCase2--><g id="link_isep_UseCase2"><path d="M231.29,458.43 C272.4,450.45 339.23,437.59 397,427 C445.87,418.04 501.05,408.34 543.4,400.98 " fill="none" id="isep-UseCase2" style="stroke:#181818;stroke-width:1.0;"/></g><!--MD5=[4206498bdd0dcbea614ac7a9291c9564]
link isep to UseCase3--><g id="link_isep_UseCase3"><path d="M231.31,466 C296.27,466 428.79,466 519.25,466 " fill="none" id="isep-UseCase3" style="stroke:#181818;stroke-width:1.0;"/></g><!--MD5=[1e18735268d14b5502504a81c0b53d5b]
link isep to UseCase6--><g id="link_isep_UseCase6"><path d="M231.22,488.7 C271.45,511.43 336.82,545.95 397,567 C443.73,583.34 498.21,595.15 540.77,602.84 " fill="none" id="isep-UseCase6" style="stroke:#181818;stroke-width:1.0;"/></g><!--MD5=[792923e1e01b106f455af2f5b2d5ee03]
link isep to UseCase7--><g id="link_isep_UseCase7"><path d="M191.5,425.39 C191.5,399.85 191.5,374.31 191.5,348.76 " fill="none" id="isep-UseCase7" style="stroke:#181818;stroke-width:1.0;"/></g><!--MD5=[33295b071f49ea815e1e5134f7207e63]
link isep to UseCase9--><g id="link_isep_UseCase9"><path d="M231.3,473.33 C272.42,481.06 339.25,493.56 397,504 C579.06,536.9 631.1,518.67 807,576 C900.37,606.43 1002.18,663.38 1050.87,692.25 " fill="none" id="isep-UseCase9" style="stroke:#181818;stroke-width:1.0;"/></g><!--MD5=[8e557264cd5b0b8df82cf909f884165f]
link arquivo to UseCase4--><g id="link_arquivo_UseCase4"><path d="M614,252.32 C614,240.59 614,228.87 614,217.14 " fill="none" id="arquivo-UseCase4" style="stroke:#181818;stroke-width:1.0;"/></g><!--MD5=[4ff6e83cec09d33cfb5c0a6211b7d42c]
link arquivo to UseCase5--><g id="link_arquivo_UseCase5"><path d="M642.7,293 C687.27,293 778.87,293 866.77,293 " fill="none" id="arquivo-UseCase5" style="stroke:#181818;stroke-width:1.0;"/></g><!--MD5=[e7ad89be398f527af3e92fb1ee122401]
link historico to UseCase6--><g id="link_historico_UseCase6"><path d="M614,669.12 C614,657.49 614,645.87 614,634.24 " fill="none" id="historico-UseCase6" style="stroke:#181818;stroke-width:1.0;"/></g><!--MD5=[273354e84858df7da50a15d7f6a4d26f]
link historico to UseCase9--><g id="link_historico_UseCase9"><path d="M642.7,710 C711.32,710 891.38,710 997.83,710 " fill="none" id="historico-UseCase9" style="stroke:#181818;stroke-width:1.0;"/></g><!--MD5=[48b44c71f2c0ac28088c6505ba9b0653]
link coord to UseCase9--><g id="link_coord_UseCase9"><path d="M233.82,694.52 C273.66,719.3 336.65,753.91 397,768 C628.48,822.04 914.55,756.44 1029.09,725 " fill="none" id="coord-UseCase9" style="stroke:#181818;stroke-width:1.0;"/></g><!--MD5=[a8578ea9f62e3e36e2ee45b98923dd17]
link coord to UseCase6--><g id="link_coord_UseCase6"><path d="M233.58,661.82 C303.75,652.98 447.68,634.83 536.71,623.61 " fill="none" id="coord-UseCase6" style="stroke:#181818;stroke-width:1.0;"/></g><!--MD5=[f6ea459a18df337eee64bd464b88bc39]
link arq to UseCase10--><g id="link_arq_UseCase10"><path d="M191.5,117.12 C191.5,105.49 191.5,93.87 191.5,82.24 " fill="none" id="arq-UseCase10" style="stroke:#181818;stroke-width:1.0;"/></g><!--MD5=[b9d206b0034ad415dfdb34b44ec3f901]
@startuml
'https://plantuml.com/use-case-diagram

left to right direction
skinparam actorStyle awesome




package "Divisão de Documentação e Cultura" {
     actor "Coordenador" as coord

}

package "Arquivo Intermediário" {
     actor "Técnico" as arquivo
    (Enviar documentos) as (UseCase1)
    (Consulta de arquivos) as (UseCase2)
    (Requisição de arquivos) as (UseCase3)
    (Avaliar o estado de conservação dos arquivos \ne reparar os que não se encontram em bom estado) as (UseCase4)
    (Eliminar arquvios que tenham passado o prazo de conservação) as (UseCase5)

}

package "Arquivo Histórico" {
    actor "Técnico" as historico
     (Consulta de arquivos) as (UseCase6)
     (Enviar documentos) as (UseCase9)

}

package "Orgãos e Estruturas do ISEP" {
    actor "Colaborador" as isep

}

package "Arquivo Corrente" {

    (Atrubuir prazos de conservação aos documentos) as (UseCase7)
}


package "Arquivo" {
    actor "Técnico" as arq
    (Arquivar documentos) as (UseCase10)
}

isep-(UseCase1)
isep- -(UseCase2)
isep- -(UseCase3)
isep- -(UseCase6)
isep-(UseCase7)
isep- - -(UseCase9)

arquivo-(UseCase4)
arquivo- -(UseCase5)

historico-(UseCase6)
historico- -(UseCase9)

coord- - -(UseCase9)
coord- -(UseCase6)

arq-(UseCase10)


@enduml

@startuml

left to right direction
skinparam actorStyle awesome




package "Divisão de Documentação e Cultura" {
     actor "Coordenador" as coord

}

package "Arquivo Intermediário" {
     actor "Técnico" as arquivo
    (Enviar documentos) as (UseCase1)
    (Consulta de arquivos) as (UseCase2)
    (Requisição de arquivos) as (UseCase3)
    (Avaliar o estado de conservação dos arquivos \ne reparar os que não se encontram em bom estado) as (UseCase4)
    (Eliminar arquvios que tenham passado o prazo de conservação) as (UseCase5)

}

package "Arquivo Histórico" {
    actor "Técnico" as historico
     (Consulta de arquivos) as (UseCase6)
     (Enviar documentos) as (UseCase9)

}

package "Orgãos e Estruturas do ISEP" {
    actor "Colaborador" as isep

}

package "Arquivo Corrente" {

    (Atrubuir prazos de conservação aos documentos) as (UseCase7)
}


package "Arquivo" {
    actor "Técnico" as arq
    (Arquivar documentos) as (UseCase10)
}

isep-(UseCase1)
isep- -(UseCase2)
isep- -(UseCase3)
isep- -(UseCase6)
isep-(UseCase7)
isep- - -(UseCase9)

arquivo-(UseCase4)
arquivo- -(UseCase5)

historico-(UseCase6)
historico- -(UseCase9)

coord- - -(UseCase9)
coord- -(UseCase6)

arq-(UseCase10)


@enduml

PlantUML version 1.2022.7(Mon Aug 22 18:01:30 BST 2022)
(GPL source distribution)
Java Runtime: OpenJDK Runtime Environment
JVM: OpenJDK 64-Bit Server VM
Default Encoding: Cp1252
Language: pt
Country: BR
--></g></svg>