<?xml version="1.0" encoding="UTF-8" standalone="no"?><svg xmlns="http://www.w3.org/2000/svg" xmlns:xlink="http://www.w3.org/1999/xlink" contentStyleType="text/css" height="767px" preserveAspectRatio="none" style="width:2275px;height:767px;background:#FFFFFF;" version="1.1" viewBox="0 0 2275 767" width="2275px" zoomAndPan="magnify"><defs/><g><!--MD5=[32373ad3ae524760cf723f64b82b765b]
cluster Divisão de Documentação e Cultura--><g id="cluster_Divisão de Documentação e Cultura"><path d="M1451.5,626 L1702.5,626 A3.75,3.75 0 0 1 1705,628.5 L1712,649.6094 L1712.5,649.6094 A2.5,2.5 0 0 1 1715,652.1094 L1715,757.5 A2.5,2.5 0 0 1 1712.5,760 L1451.5,760 A2.5,2.5 0 0 1 1449,757.5 L1449,628.5 A2.5,2.5 0 0 1 1451.5,626 " style="stroke:#000000;stroke-width:1.5;fill:none;"/><line style="stroke:#000000;stroke-width:1.5;fill:none;" x1="1449" x2="1712" y1="649.6094" y2="649.6094"/><text fill="#000000" font-family="sans-serif" font-size="14" font-weight="bold" lengthAdjust="spacing" textLength="250" x="1453" y="642.5332">Divisão de Documentação e Cultura</text></g><!--MD5=[3e9bea1ac2e003185f8c4b6861bf1a33]
cluster Arquivo Intermediário--><g id="cluster_Arquivo Intermediário"><path d="M407.5,6 L561.5,6 A3.75,3.75 0 0 1 564,8.5 L571,29.6094 L1308.5,29.6094 A2.5,2.5 0 0 1 1311,32.1094 L1311,481.5 A2.5,2.5 0 0 1 1308.5,484 L407.5,484 A2.5,2.5 0 0 1 405,481.5 L405,8.5 A2.5,2.5 0 0 1 407.5,6 " style="stroke:#000000;stroke-width:1.5;fill:none;"/><line style="stroke:#000000;stroke-width:1.5;fill:none;" x1="405" x2="571" y1="29.6094" y2="29.6094"/><text fill="#000000" font-family="sans-serif" font-size="14" font-weight="bold" lengthAdjust="spacing" textLength="153" x="409" y="22.5332">Arquivo Intermediário</text></g><!--MD5=[7673e0380a4f71a7aaa00c34392a9f2b]
cluster Arquivo Histórico--><g id="cluster_Arquivo Histórico"><path d="M1402.5,162 L1525.5,162 A3.75,3.75 0 0 1 1528,164.5 L1535,185.6094 L2265.5,185.6094 A2.5,2.5 0 0 1 2268,188.1094 L2268,552.5 A2.5,2.5 0 0 1 2265.5,555 L1402.5,555 A2.5,2.5 0 0 1 1400,552.5 L1400,164.5 A2.5,2.5 0 0 1 1402.5,162 " style="stroke:#000000;stroke-width:1.5;fill:none;"/><line style="stroke:#000000;stroke-width:1.5;fill:none;" x1="1400" x2="1535" y1="185.6094" y2="185.6094"/><text fill="#000000" font-family="sans-serif" font-size="14" font-weight="bold" lengthAdjust="spacing" textLength="122" x="1404" y="178.5332">Arquivo Histórico</text></g><!--MD5=[9d2921cc231062a54788bc1cda6fe6c7]
cluster Orgãos e Estruturas do ISEP--><g id="cluster_Orgãos e Estruturas do ISEP"><path d="M87.5,369 L286.5,369 A3.75,3.75 0 0 1 289,371.5 L296,392.6094 L296.5,392.6094 A2.5,2.5 0 0 1 299,395.1094 L299,500.5 A2.5,2.5 0 0 1 296.5,503 L87.5,503 A2.5,2.5 0 0 1 85,500.5 L85,371.5 A2.5,2.5 0 0 1 87.5,369 " style="stroke:#000000;stroke-width:1.5;fill:none;"/><line style="stroke:#000000;stroke-width:1.5;fill:none;" x1="85" x2="296" y1="392.6094" y2="392.6094"/><text fill="#000000" font-family="sans-serif" font-size="14" font-weight="bold" lengthAdjust="spacing" textLength="198" x="89" y="385.5332">Orgãos e Estruturas do ISEP</text></g><!--MD5=[93d8b124344fdb2eafe755b06f5b8a9e]
cluster Arquivo Corrente--><g id="cluster_Arquivo Corrente"><path d="M8.5,219 L131.5,219 A3.75,3.75 0 0 1 134,221.5 L141,242.6094 L374.5,242.6094 A2.5,2.5 0 0 1 377,245.1094 L377,342.5 A2.5,2.5 0 0 1 374.5,345 L8.5,345 A2.5,2.5 0 0 1 6,342.5 L6,221.5 A2.5,2.5 0 0 1 8.5,219 " style="stroke:#000000;stroke-width:1.5;fill:none;"/><line style="stroke:#000000;stroke-width:1.5;fill:none;" x1="6" x2="141" y1="242.6094" y2="242.6094"/><text fill="#000000" font-family="sans-serif" font-size="14" font-weight="bold" lengthAdjust="spacing" textLength="122" x="10" y="235.5332">Arquivo Corrente</text></g><!--MD5=[74ae13a03863147ae30e011dc1ccfa85]
entity coord--><g id="elem_coord"><ellipse cx="1582" cy="680" fill="#F1F1F1" rx="16" ry="16" style="stroke:#181818;stroke-width:1.5;"/><path d="M1582,700 C1586,700 1589,700 1593,696 C1601,696 1609,704 1609,712 L1609,716 C1609,720 1605,724 1601,724 L1563,724 C1559,724 1555,720 1555,716 L1555,712 C1555,704 1563,696 1571,696 C1575,700 1578,700 1582,700 " fill="#F1F1F1" style="stroke:#181818;stroke-width:1.5;"/><text fill="#000000" font-family="sans-serif" font-size="14" lengthAdjust="spacing" textLength="84" x="1540" y="740.0332">Coordenador</text></g><!--MD5=[ddd11e525373e477658aa9eb2bf4a840]
entity arquivo--><g id="elem_arquivo"><ellipse cx="614" cy="250" fill="#F1F1F1" rx="16" ry="16" style="stroke:#181818;stroke-width:1.5;"/><path d="M614,270 C618,270 621,270 625,266 C633,266 641,274 641,282 L641,286 C641,290 637,294 633,294 L595,294 C591,294 587,290 587,286 L587,282 C587,274 595,266 603,266 C607,270 610,270 614,270 " fill="#F1F1F1" style="stroke:#181818;stroke-width:1.5;"/><text fill="#000000" font-family="sans-serif" font-size="14" lengthAdjust="spacing" textLength="50" x="589" y="310.0332">Técnico</text></g><g id="elem_UseCase1"><ellipse cx="613.7516" cy="60.9503" fill="#F1F1F1" rx="82.7516" ry="18.9503" style="stroke:#181818;stroke-width:0.5;"/><text fill="#000000" font-family="sans-serif" font-size="14" lengthAdjust="spacing" textLength="121" x="553.2516" y="64.6788">Enviar documentos</text></g><g id="elem_UseCase2"><ellipse cx="614.2471" cy="369.0494" fill="#F1F1F1" rx="88.2471" ry="20.0494" style="stroke:#181818;stroke-width:0.5;"/><text fill="#000000" font-family="sans-serif" font-size="14" lengthAdjust="spacing" textLength="134" x="547.2471" y="372.7779">Consulta de arquivos</text></g><g id="elem_UseCase3"><ellipse cx="613.813" cy="445.7626" fill="#F1F1F1" rx="94.313" ry="21.2626" style="stroke:#181818;stroke-width:0.5;"/><text fill="#000000" font-family="sans-serif" font-size="14" lengthAdjust="spacing" textLength="148" x="539.813" y="449.4911">Requisição de arquivos</text></g><g id="elem_UseCase4"><ellipse cx="614.1171" cy="156.0234" fill="#F1F1F1" rx="193.1171" ry="41.0234" style="stroke:#181818;stroke-width:0.5;"/><text fill="#000000" font-family="sans-serif" font-size="14" lengthAdjust="spacing" textLength="292" x="466.1171" y="150.9472">Avaliar o estado de conservação dos arquivos</text><text fill="#000000" font-family="sans-serif" font-size="14" lengthAdjust="spacing" textLength="325" x="451.6171" y="168.5566">e reparar os que não se encontram em bom estado</text></g><g id="elem_UseCase5"><ellipse cx="1081.1405" cy="273.2281" fill="#F1F1F1" rx="214.1405" ry="45.2281" style="stroke:#181818;stroke-width:0.5;"/><text fill="#000000" font-family="sans-serif" font-size="14" lengthAdjust="spacing" textLength="401" x="880.6405" y="276.9566">Eliminar arquvios que tenham passado o prazo de conservação</text></g><!--MD5=[3e06231d37b675c0735e74005c636efa]
entity historico--><g id="elem_historico"><ellipse cx="1582" cy="322" fill="#F1F1F1" rx="16" ry="16" style="stroke:#181818;stroke-width:1.5;"/><path d="M1582,342 C1586,342 1589,342 1593,338 C1601,338 1609,346 1609,354 L1609,358 C1609,362 1605,366 1601,366 L1563,366 C1559,366 1555,362 1555,358 L1555,354 C1555,346 1563,338 1571,338 C1575,342 1578,342 1582,342 " fill="#F1F1F1" style="stroke:#181818;stroke-width:1.5;"/><text fill="#000000" font-family="sans-serif" font-size="14" lengthAdjust="spacing" textLength="50" x="1557" y="382.0332">Técnico</text></g><g id="elem_UseCase6"><ellipse cx="1582.2471" cy="519.0494" fill="#F1F1F1" rx="88.2471" ry="20.0494" style="stroke:#181818;stroke-width:0.5;"/><text fill="#000000" font-family="sans-serif" font-size="14" lengthAdjust="spacing" textLength="134" x="1515.2471" y="522.7779">Consulta de arquivos</text></g><g id="elem_UseCase8"><ellipse cx="1582.0554" cy="234.1111" fill="#F1F1F1" rx="166.0554" ry="35.6111" style="stroke:#181818;stroke-width:0.5;"/><text fill="#000000" font-family="sans-serif" font-size="14" lengthAdjust="spacing" textLength="302" x="1431.0554" y="237.8396">Aplicar prazos de conservação dos documentos</text></g><g id="elem_UseCase9"><ellipse cx="2029.971" cy="491.7942" fill="#F1F1F1" rx="221.971" ry="46.7942" style="stroke:#181818;stroke-width:0.5;"/><text fill="#000000" font-family="sans-serif" font-size="14" lengthAdjust="spacing" textLength="417" x="1821.471" y="495.5227">Avaliação e seleção dos documentos que devem ser conservados</text></g><g id="elem_UseCase10"><ellipse cx="1582.0702" cy="442.114" fill="#F1F1F1" rx="96.0702" ry="21.614" style="stroke:#181818;stroke-width:0.5;"/><text fill="#000000" font-family="sans-serif" font-size="14" lengthAdjust="spacing" textLength="152" x="1506.0702" y="445.8426">Envio de documentação</text></g><!--MD5=[a11f39c3ba6172ba37424a7763e6fa7f]
entity isep--><g id="elem_isep"><ellipse cx="191.5" cy="423" fill="#F1F1F1" rx="16" ry="16" style="stroke:#181818;stroke-width:1.5;"/><path d="M191.5,443 C195.5,443 198.5,443 202.5,439 C210.5,439 218.5,447 218.5,455 L218.5,459 C218.5,463 214.5,467 210.5,467 L172.5,467 C168.5,467 164.5,463 164.5,459 L164.5,455 C164.5,447 172.5,439 180.5,439 C184.5,443 187.5,443 191.5,443 " fill="#F1F1F1" style="stroke:#181818;stroke-width:1.5;"/><text fill="#000000" font-family="sans-serif" font-size="14" lengthAdjust="spacing" textLength="79" x="152" y="483.0332">Colaborador</text></g><g id="elem_UseCase7"><ellipse cx="191.4281" cy="291.7856" fill="#F1F1F1" rx="169.4281" ry="36.2856" style="stroke:#181818;stroke-width:0.5;"/><text fill="#000000" font-family="sans-serif" font-size="14" lengthAdjust="spacing" textLength="309" x="36.9281" y="295.5141">Atrubuir prazos de conservação aos documentos</text></g><!--MD5=[965f88d10d76340232aeadcba220dee3]
link isep to UseCase1--><g id="link_isep_UseCase1"><path d="M231.39,437.77 C276.92,425.88 350.49,399.09 385,345 C399.84,321.74 378.66,117.61 397,97 C432.12,57.52 492.78,50.3 540.9,51.94 " fill="none" id="isep-UseCase1" style="stroke:#181818;stroke-width:1.0;"/></g><!--MD5=[673aeae4241482bb6dea1b16c0d96cb6]
link isep to UseCase2--><g id="link_isep_UseCase2"><path d="M231.29,438.43 C272.4,430.45 339.23,417.59 397,407 C445.87,398.04 501.05,388.34 543.4,380.98 " fill="none" id="isep-UseCase2" style="stroke:#181818;stroke-width:1.0;"/></g><!--MD5=[4206498bdd0dcbea614ac7a9291c9564]
link isep to UseCase3--><g id="link_isep_UseCase3"><path d="M231.31,446 C296.27,446 428.79,446 519.25,446 " fill="none" id="isep-UseCase3" style="stroke:#181818;stroke-width:1.0;"/></g><!--MD5=[1e18735268d14b5502504a81c0b53d5b]
link isep to UseCase6--><g id="link_isep_UseCase6"><path d="M231.06,455 C271.98,464.13 338.65,477.75 397,484 C805.7,527.75 1297.96,524.52 1494.16,521 " fill="none" id="isep-UseCase6" style="stroke:#181818;stroke-width:1.0;"/></g><!--MD5=[792923e1e01b106f455af2f5b2d5ee03]
link isep to UseCase7--><g id="link_isep_UseCase7"><path d="M191.5,405.39 C191.5,379.85 191.5,354.31 191.5,328.76 " fill="none" id="isep-UseCase7" style="stroke:#181818;stroke-width:1.0;"/></g><!--MD5=[33295b071f49ea815e1e5134f7207e63]
link isep to UseCase9--><g id="link_isep_UseCase9"><path d="M231.17,463.75 C271.63,481.5 337.43,508.12 397,522 C694.18,591.26 774.85,592 1080,592 C1080,592 1080,592 1356,592 C1530.96,592 1575.22,583.49 1748,556 C1793.71,548.73 1843.07,538.36 1887.48,528.07 " fill="none" id="isep-UseCase9" style="stroke:#181818;stroke-width:1.0;"/></g><!--MD5=[8e557264cd5b0b8df82cf909f884165f]
link arquivo to UseCase4--><g id="link_arquivo_UseCase4"><path d="M614,232.32 C614,220.6 614,208.87 614,197.14 " fill="none" id="arquivo-UseCase4" style="stroke:#181818;stroke-width:1.0;"/></g><!--MD5=[4ff6e83cec09d33cfb5c0a6211b7d42c]
link arquivo to UseCase5--><g id="link_arquivo_UseCase5"><path d="M642.7,273 C687.27,273 778.87,273 866.77,273 " fill="none" id="arquivo-UseCase5" style="stroke:#181818;stroke-width:1.0;"/></g><!--MD5=[78b9e54017c91e531c82a42482b0dde5]
link arquivo to UseCase10--><g id="link_arquivo_UseCase10"><path d="M642.78,280.73 C689.01,293.39 784.79,318.76 867,335 C1093.26,379.69 1363.12,415.41 1497.03,431.97 " fill="none" id="arquivo-UseCase10" style="stroke:#181818;stroke-width:1.0;"/></g><!--MD5=[d7d9d6b0505a2654cff4484307bbd490]
link historico to UseCase8--><g id="link_historico_UseCase8"><path d="M1582,304.24 C1582,292.72 1582,281.19 1582,269.67 " fill="none" id="historico-UseCase8" style="stroke:#181818;stroke-width:1.0;"/></g><!--MD5=[273354e84858df7da50a15d7f6a4d26f]
link historico to UseCase9--><g id="link_historico_UseCase9"><path d="M1610.56,354.08 C1668.77,373.27 1807.24,418.91 1909.02,452.45 " fill="none" id="historico-UseCase9" style="stroke:#181818;stroke-width:1.0;"/></g><!--MD5=[48b44c71f2c0ac28088c6505ba9b0653]
link coord to UseCase9--><g id="link_coord_UseCase9"><path d="M1624.16,683.53 C1695.21,649.91 1842.48,580.24 1938.44,534.84 " fill="none" id="coord-UseCase9" style="stroke:#181818;stroke-width:1.0;"/></g><!--MD5=[3d69765ee48763ce362e89d0f1ee7919]
@startuml
'https://plantuml.com/use-case-diagram

left to right direction
skinparam actorStyle awesome




package "Divisão de Documentação e Cultura" {
     actor "Coordenador" as coord

}

package "Arquivo Intermediário" {
     actor "Técnico" as arquivo
    (Enviar documentos) as (UseCase1)
    (Consulta de arquivos) as (UseCase2)
    (Requisição de arquivos) as (UseCase3)
    (Avaliar o estado de conservação dos arquivos \ne reparar os que não se encontram em bom estado) as (UseCase4)
    (Eliminar arquvios que tenham passado o prazo de conservação) as (UseCase5)

}

package "Arquivo Histórico" {
    actor "Técnico" as historico
     (Consulta de arquivos) as (UseCase6)
     (Aplicar prazos de conservação dos documentos) as (UseCase8)
     (Avaliação e seleção dos documentos que devem ser conservados) as (UseCase9)
     (Envio de documentação) as (UseCase10)
}

package "Orgãos e Estruturas do ISEP" {
    actor "Colaborador" as isep

}

package "Arquivo Corrente" {

    (Atrubuir prazos de conservação aos documentos) as (UseCase7)
}

isep-(UseCase1)
isep- -(UseCase2)
isep- -(UseCase3)
isep- -(UseCase6)
isep-(UseCase7)
isep- - -(UseCase9)

arquivo-(UseCase4)
arquivo- -(UseCase5)
arquivo- - - -(UseCase10)

historico-(UseCase8)
historico- -(UseCase9)

coord- -(UseCase9)


@enduml

@startuml

left to right direction
skinparam actorStyle awesome




package "Divisão de Documentação e Cultura" {
     actor "Coordenador" as coord

}

package "Arquivo Intermediário" {
     actor "Técnico" as arquivo
    (Enviar documentos) as (UseCase1)
    (Consulta de arquivos) as (UseCase2)
    (Requisição de arquivos) as (UseCase3)
    (Avaliar o estado de conservação dos arquivos \ne reparar os que não se encontram em bom estado) as (UseCase4)
    (Eliminar arquvios que tenham passado o prazo de conservação) as (UseCase5)

}

package "Arquivo Histórico" {
    actor "Técnico" as historico
     (Consulta de arquivos) as (UseCase6)
     (Aplicar prazos de conservação dos documentos) as (UseCase8)
     (Avaliação e seleção dos documentos que devem ser conservados) as (UseCase9)
     (Envio de documentação) as (UseCase10)
}

package "Orgãos e Estruturas do ISEP" {
    actor "Colaborador" as isep

}

package "Arquivo Corrente" {

    (Atrubuir prazos de conservação aos documentos) as (UseCase7)
}

isep-(UseCase1)
isep- -(UseCase2)
isep- -(UseCase3)
isep- -(UseCase6)
isep-(UseCase7)
isep- - -(UseCase9)

arquivo-(UseCase4)
arquivo- -(UseCase5)
arquivo- - - -(UseCase10)

historico-(UseCase8)
historico- -(UseCase9)

coord- -(UseCase9)


@enduml

PlantUML version 1.2022.5(Sat Apr 30 11:55:52 BST 2022)
(GPL source distribution)
Java Runtime: OpenJDK Runtime Environment
JVM: OpenJDK 64-Bit Server VM
Default Encoding: Cp1252
Language: pt
Country: BR
--></g></svg>