<?xml version="1.0" encoding="UTF-8" standalone="no"?><svg xmlns="http://www.w3.org/2000/svg" xmlns:xlink="http://www.w3.org/1999/xlink" contentStyleType="text/css" height="316px" preserveAspectRatio="none" style="width:855px;height:316px;background:#FFFFFF;" version="1.1" viewBox="0 0 855 316" width="855px" zoomAndPan="magnify"><defs/><g><!--MD5=[d4fd206715d7447d1691fff1d8592e64]
cluster  <<component>>\n Biblioteca--><g id="cluster_ &lt;&lt;component&gt;&gt;\n Biblioteca"><rect fill="none" height="267" rx="2.5" ry="2.5" style="stroke:#181818;stroke-width:1.0;" width="588" x="7" y="43.1855"/><rect fill="none" height="10" style="stroke:#181818;stroke-width:1.0;" width="15" x="575" y="48.1855"/><rect fill="none" height="2" style="stroke:#181818;stroke-width:1.0;" width="4" x="573" y="50.1855"/><rect fill="none" height="2" style="stroke:#181818;stroke-width:1.0;" width="4" x="573" y="54.1855"/><text fill="#000000" font-family="sans-serif" font-size="14" font-weight="bold" lengthAdjust="spacing" textLength="111" x="247.5" y="70.7188">&lt;&lt;component&gt;&gt;</text><text fill="#000000" font-family="sans-serif" font-size="14" font-weight="bold" lengthAdjust="spacing" textLength="70" x="268" y="88.3281">Biblioteca</text></g><text fill="#000000" font-family="sans-serif" font-size="14" lengthAdjust="spacing" textLength="16" x="297" y="22.1094">p1</text><rect fill="#F1F1F1" height="12" style="stroke:#181818;stroke-width:1.5;" width="12" x="299" y="37.1855"/><text fill="#000000" font-family="sans-serif" font-size="14" lengthAdjust="spacing" textLength="16" x="587" y="284.7188">p2</text><rect fill="#F1F1F1" height="12" style="stroke:#181818;stroke-width:1.5;" width="12" x="589" y="258.1855"/><!--MD5=[c42ed81cef7fdd2e33758127945b9a5b]
entity UI--><g id="elem_UI"><rect fill="#F1F1F1" height="65.2188" rx="2.5" ry="2.5" style="stroke:#181818;stroke-width:0.5;" width="162" x="23" y="109.1855"/><rect fill="#F1F1F1" height="10" style="stroke:#181818;stroke-width:0.5;" width="15" x="165" y="114.1855"/><rect fill="#F1F1F1" height="2" style="stroke:#181818;stroke-width:0.5;" width="4" x="163" y="116.1855"/><rect fill="#F1F1F1" height="2" style="stroke:#181818;stroke-width:0.5;" width="4" x="163" y="120.1855"/><text fill="#000000" font-family="sans-serif" font-size="14" lengthAdjust="spacing" textLength="86" x="74" y="143.7188">«component»</text><text fill="#000000" font-family="sans-serif" font-size="14" lengthAdjust="spacing" textLength="77" x="38" y="161.3281">Biblioteca UI</text></g><!--MD5=[a6db0c926898241e7c594507fb3ca544]
entity Backend--><g id="elem_Backend"><rect fill="#F1F1F1" height="65.2188" rx="2.5" ry="2.5" style="stroke:#181818;stroke-width:0.5;" width="186" x="220" y="109.1855"/><rect fill="#F1F1F1" height="10" style="stroke:#181818;stroke-width:0.5;" width="15" x="386" y="114.1855"/><rect fill="#F1F1F1" height="2" style="stroke:#181818;stroke-width:0.5;" width="4" x="384" y="116.1855"/><rect fill="#F1F1F1" height="2" style="stroke:#181818;stroke-width:0.5;" width="4" x="384" y="120.1855"/><text fill="#000000" font-family="sans-serif" font-size="14" lengthAdjust="spacing" textLength="86" x="295" y="143.7188">«component»</text><text fill="#000000" font-family="sans-serif" font-size="14" lengthAdjust="spacing" textLength="133" x="239" y="161.3281">Biblioteca BackOffice</text></g><!--MD5=[645d8587175d8f7ad110cd370775931d]
entity API--><g id="elem_API"><ellipse cx="208" cy="264.1855" fill="#F1F1F1" rx="8" ry="8" style="stroke:#181818;stroke-width:0.5;"/><text fill="#000000" font-family="sans-serif" font-size="14" lengthAdjust="spacing" textLength="46" x="185" y="295.7188">API BIB</text></g><!--MD5=[c97c613dbfcfa94bb180f2ce6d0b4cfd]
entity BD--><g id="elem_BD"><path d="M636,250.6855 C636,240.6855 737,240.6855 737,240.6855 C737,240.6855 838,240.6855 838,250.6855 L838,277.2949 C838,287.2949 737,287.2949 737,287.2949 C737,287.2949 636,287.2949 636,277.2949 L636,250.6855 " fill="#F1F1F1" style="stroke:#181818;stroke-width:0.5;"/><path d="M636,250.6855 C636,260.6855 737,260.6855 737,260.6855 C737,260.6855 838,260.6855 838,250.6855 " fill="none" style="stroke:#181818;stroke-width:0.5;"/><text fill="#000000" font-family="sans-serif" font-size="14" lengthAdjust="spacing" textLength="182" x="646" y="279.2188">Base de Dados da Biblioteca</text></g><!--MD5=[c26e49bab1f0e4b962407185817276f9]
link UI to p1--><g id="link_UI_p1"><path d="M169.76,109.1155 C218.37,85.7755 279.35,56.5055 298.76,47.1755 " fill="none" id="UI-p1" style="stroke:#181818;stroke-width:1.0;"/></g><!--MD5=[2a606f92fdd05c1fe5dd6caf7c834332]
link UI to API--><g id="link_UI_API"><path d="M131.32,174.3455 C154.68,201.4055 186.67,238.4655 200.8,254.8355 " fill="none" id="UI-API" style="stroke:#181818;stroke-width:1.0;"/></g><!--MD5=[a343c5f8f81d88e74c39bb6f98cd36df]
link Backend to API--><g id="link_Backend_API"><path d="M285.41,174.3455 C263.68,199.2855 234.53,232.7355 218.93,250.6355 " fill="none" id="Backend-to-API" style="stroke:#181818;stroke-width:1.0;"/><polygon fill="#181818" points="215.27,254.8355,224.1979,250.6772,218.5544,251.0656,218.166,245.4221,215.27,254.8355" style="stroke:#181818;stroke-width:1.0;"/></g><!--MD5=[af2f6ef197e949fd5102323d75185ecd]
link Backend to p2--><g id="link_Backend_p2"><path d="M406,169.5555 C479.42,191.4855 571.65,220.9355 585,234.1855 C591.5,240.6355 593.78,251.5155 594.58,257.9555 " fill="none" id="Backend-p2" style="stroke:#181818;stroke-width:1.0;"/></g><!--MD5=[70aad821274bcb539e14741365d626c6]
link p2 to BD--><g id="link_p2_BD"><path d="M601.1,264.1855 C612.69,264.1855 624.28,264.1855 635.87,264.1855 " fill="none" id="p2-BD" style="stroke:#181818;stroke-width:1.0;"/></g><!--MD5=[54d49c1da066977b5410d2303e497729]
@startuml componentDiagram

component  " <<component>>\n Biblioteca" {
    portin p1
    portout p2
    component "         <<component>>\nBiblioteca UI" as UI
    component "               <<component>>\n Biblioteca BackOffice" as Backend
    interface "API BIB" as API
    
 
}

database "Base de Dados da Biblioteca" as BD {

}

UI - - p1
UI - - API
Backend - -> API
Backend - - p2
p2- BD

@enduml

PlantUML version 1.2022.7(Mon Aug 22 18:01:30 WEST 2022)
(GPL source distribution)
Java Runtime: Java(TM) SE Runtime Environment
JVM: Java HotSpot(TM) 64-Bit Server VM
Default Encoding: Cp1252
Language: pt
Country: PT
--></g></svg>