<?xml version="1.0" encoding="UTF-8" standalone="no"?><svg xmlns="http://www.w3.org/2000/svg" xmlns:xlink="http://www.w3.org/1999/xlink" contentStyleType="text/css" height="466px" preserveAspectRatio="none" style="width:427px;height:466px;background:#FFFFFF;" version="1.1" viewBox="0 0 427 466" width="427px" zoomAndPan="magnify"><defs/><g><!--MD5=[d2242131270c237e071fd8738247fbb8]
cluster FE--><g id="cluster_FE"><polygon fill="none" points="99,16,109,6,410,6,410,117,400,127,99,127,99,16" style="stroke:#181818;stroke-width:1.0;"/><line style="stroke:#181818;stroke-width:1.0;" x1="400" x2="410" y1="16" y2="6"/><line style="stroke:#181818;stroke-width:1.0;" x1="99" x2="400" y1="16" y2="16"/><line style="stroke:#181818;stroke-width:1.0;" x1="400" x2="400" y1="16" y2="127"/><text fill="#000000" font-family="sans-serif" font-size="14" font-weight="bold" lengthAdjust="spacing" textLength="115" x="193" y="33.5332">Servidor: BIB_UI</text></g><!--MD5=[1be5ba597eb94cce0da0918bcfdab842]
cluster BO--><g id="cluster_BO"><polygon fill="none" points="99,203,109,193,352,193,352,321,342,331,99,331,99,203" style="stroke:#181818;stroke-width:1.0;"/><line style="stroke:#181818;stroke-width:1.0;" x1="342" x2="352" y1="203" y2="193"/><line style="stroke:#181818;stroke-width:1.0;" x1="99" x2="342" y1="203" y2="203"/><line style="stroke:#181818;stroke-width:1.0;" x1="342" x2="342" y1="203" y2="331"/><text fill="#000000" font-family="sans-serif" font-size="14" font-weight="bold" lengthAdjust="spacing" textLength="122" x="160.5" y="220.5332">Servidor: BIB_BO</text></g><!--MD5=[c42ed81cef7fdd2e33758127945b9a5b]
entity UI--><g id="elem_UI"><rect fill="#F1F1F1" height="47.6094" rx="2.5" ry="2.5" style="stroke:#181818;stroke-width:0.5;" width="243" x="142.5" y="55"/><rect fill="#F1F1F1" height="10" style="stroke:#181818;stroke-width:0.5;" width="15" x="365.5" y="60"/><rect fill="#F1F1F1" height="2" style="stroke:#181818;stroke-width:0.5;" width="4" x="363.5" y="62"/><rect fill="#F1F1F1" height="2" style="stroke:#181818;stroke-width:0.5;" width="4" x="363.5" y="66"/><text fill="#000000" font-family="sans-serif" font-size="14" lengthAdjust="spacing" textLength="167" x="193.5" y="89.5332">«component»\Biblioteca UI</text></g><!--MD5=[f1b6f5bcd1605f3bd821ce448c56c609]
entity Backoffice--><g id="elem_Backoffice"><rect fill="#F1F1F1" height="65.2188" rx="2.5" ry="2.5" style="stroke:#181818;stroke-width:0.5;" width="186" x="142" y="242"/><rect fill="#F1F1F1" height="10" style="stroke:#181818;stroke-width:0.5;" width="15" x="308" y="247"/><rect fill="#F1F1F1" height="2" style="stroke:#181818;stroke-width:0.5;" width="4" x="306" y="249"/><rect fill="#F1F1F1" height="2" style="stroke:#181818;stroke-width:0.5;" width="4" x="306" y="253"/><text fill="#000000" font-family="sans-serif" font-size="14" lengthAdjust="spacing" textLength="86" x="217" y="276.5332">«component»</text><text fill="#000000" font-family="sans-serif" font-size="14" lengthAdjust="spacing" textLength="130" x="161" y="294.1426">Biblioteca Backoffice</text></g><!--MD5=[c97c613dbfcfa94bb180f2ce6d0b4cfd]
entity BD--><g id="elem_BD"><path d="M6,413 C6,403 107,403 107,403 C107,403 208,403 208,413 L208,439.6094 C208,449.6094 107,449.6094 107,449.6094 C107,449.6094 6,449.6094 6,439.6094 L6,413 " fill="#F1F1F1" style="stroke:#181818;stroke-width:0.5;"/><path d="M6,413 C6,423 107,423 107,423 C107,423 208,423 208,413 " fill="none" style="stroke:#181818;stroke-width:0.5;"/><text fill="#000000" font-family="sans-serif" font-size="14" lengthAdjust="spacing" textLength="182" x="16" y="441.5332">Base de Dados da Biblioteca</text></g><!--MD5=[4f1dfa3ac6dddd2191ac0062ac74e297]
link FE to BO--><g id="link_FE_BO"><path d="M107,127.3237 C107,127.6436 107,127.9645 107,128.2863 C107,128.9301 107,129.5776 107,130.2289 C107,131.5314 107,132.8487 107,134.1794 C107,136.8409 107,139.556 107,142.314 C107,153.3462 107,165.0653 107,176.7838 C107,179.7134 107,182.6429 107,185.5617 C107,187.0211 107,188.4778 107,189.9304 C107,190.6568 107,191.3821 107,192.1062 C107,192.2872 107,192.4682 107,192.6491 " fill="none" id="FE-BO" style="stroke:#181818;stroke-width:1.0;"/><text fill="#000000" font-family="sans-serif" font-size="13" lengthAdjust="spacing" textLength="33" x="108" y="165.4951">http/s</text></g><!--MD5=[0da331386f3001e40f21de7e5f9ff620]
link BO to BD--><g id="link_BO_BD"><path d="M107,331.2582 C107,331.6779 107,332.0984 107,332.5197 C107,333.3624 107,334.2083 107,335.0569 C107,338.4515 107,341.8902 107,345.3436 C107,352.2503 107,359.2156 107,366.0037 C107,379.58 107,392.4475 107,402.72 " fill="none" id="BO-BD" style="stroke:#181818;stroke-width:1.0;"/><text fill="#000000" font-family="sans-serif" font-size="13" lengthAdjust="spacing" textLength="41" x="108" y="369.4951">TCP/IP</text></g><!--MD5=[c093907f36bee8382bd9e41d3499d562]
@startuml deploymentDiagram

node "Servidor: BIB_UI" as FE{
   component "         <<component>>\Biblioteca UI" as UI
  
}

node "Servidor: BIB_BO" as BO {
  component "               <<component>>\n Biblioteca Backoffice" as Backoffice
}

database "Base de Dados da Biblioteca" as BD {

}

FE- -BO : http/s
BO- -BD : TCP/IP

@enduml

PlantUML version 1.2022.7(Mon Aug 22 18:01:30 WEST 2022)
(GPL source distribution)
Java Runtime: Java(TM) SE Runtime Environment
JVM: Java HotSpot(TM) 64-Bit Server VM
Default Encoding: Cp1252
Language: pt
Country: PT
--></g></svg>