<?xml version="1.0" encoding="UTF-8" standalone="no"?><svg xmlns="http://www.w3.org/2000/svg" xmlns:xlink="http://www.w3.org/1999/xlink" contentStyleType="text/css" height="1288px" preserveAspectRatio="none" style="width:957px;height:1288px;background:#FFFFFF;" version="1.1" viewBox="0 0 957 1288" width="957px" zoomAndPan="magnify"><defs/><g><!--MD5=[4ce32b9fd890a5f61a83fceae7f0cffa]
entity biblio--><g id="elem_biblio"><ellipse cx="66" cy="672" fill="#F1F1F1" rx="16" ry="16" style="stroke:#181818;stroke-width:1.5;"/><path d="M66,692 C70,692 73,692 77,688 C85,688 93,696 93,704 L93,708 C93,712 89,716 85,716 L47,716 C43,716 39,712 39,708 L39,704 C39,696 47,688 55,688 C59,692 62,692 66,692 " fill="#F1F1F1" style="stroke:#181818;stroke-width:1.5;"/><text fill="#000000" font-family="sans-serif" font-size="14" lengthAdjust="spacing" textLength="120" x="6" y="731.0352">Biblioteca do ISEP</text></g><g id="elem_use1"><ellipse cx="568.3393" cy="81.8679" fill="#F1F1F1" rx="367.3393" ry="75.8679" style="stroke:#181818;stroke-width:0.5;"/><text fill="#000000" font-family="sans-serif" font-size="14" lengthAdjust="spacing" textLength="712" x="212.3393" y="85.1589">Como Biblioteca, sou responsável pelo processo de listagem de aquisição de monografias e publicações</text></g><g id="elem_use2"><ellipse cx="568.3425" cy="268.7685" fill="#F1F1F1" rx="366.8425" ry="75.7685" style="stroke:#181818;stroke-width:0.5;"/><text fill="#000000" font-family="sans-serif" font-size="14" lengthAdjust="spacing" textLength="711" x="212.8425" y="272.0595">Como Biblioteca, sou responsável pela catalogação e organização num registo dos materiais adquiridos</text></g><g id="elem_use3"><ellipse cx="568.4574" cy="432.9915" fill="#F1F1F1" rx="250.4574" ry="52.4915" style="stroke:#181818;stroke-width:0.5;"/><text fill="#000000" font-family="sans-serif" font-size="14" lengthAdjust="spacing" textLength="476" x="330.4574" y="436.2825">Como Biblioteca, desejo realizar o tratamento técnico de dissertações</text></g><g id="elem_use5"><ellipse cx="568.2829" cy="598.1566" fill="#F1F1F1" rx="376.2829" ry="77.6566" style="stroke:#181818;stroke-width:0.5;"/><text fill="#000000" font-family="sans-serif" font-size="14" lengthAdjust="spacing" textLength="730" x="203.2829" y="601.4476">Como Biblioteca, desejo servir os alunos com serviços de requisição/empréstimo dos materiais disponíveis</text></g><g id="elem_use4"><ellipse cx="568.7439" cy="789.9488" fill="#F1F1F1" rx="382.7439" ry="78.9488" style="stroke:#181818;stroke-width:0.5;"/><text fill="#000000" font-family="sans-serif" font-size="14" lengthAdjust="spacing" textLength="743" x="197.2439" y="793.2398">Como Biblioteca, pretendo efetuar um controlo das requisições efetuadas através de um sistema informático</text></g><g id="elem_use6"><ellipse cx="568.4574" cy="956.9915" fill="#F1F1F1" rx="250.4574" ry="52.4915" style="stroke:#181818;stroke-width:0.5;"/><text fill="#000000" font-family="sans-serif" font-size="14" lengthAdjust="spacing" textLength="476" x="330.4574" y="960.2825">Como Biblioteca, possuo um processo de controlo de dano e extravio</text></g><g id="elem_use7"><ellipse cx="568.3516" cy="1107.8703" fill="#F1F1F1" rx="302.3516" ry="62.8703" style="stroke:#181818;stroke-width:0.5;"/><text fill="#000000" font-family="sans-serif" font-size="14" lengthAdjust="spacing" textLength="581" x="277.8516" y="1111.1613">Como Biblioteca, pretendo analisar e manifestar a decisão perante possíveis doações</text></g><g id="elem_use8"><ellipse cx="568.3981" cy="1244.1796" fill="#F1F1F1" rx="178.8981" ry="38.1796" style="stroke:#181818;stroke-width:0.5;"/><text fill="#000000" font-family="sans-serif" font-size="14" lengthAdjust="spacing" textLength="330" x="403.3981" y="1247.4706">Como Biblioteca, promovo ações de infoliteracia</text></g><!--MD5=[88747b2ccbd87bc516dc90858c04a6e9]
link biblio to use1--><g id="link_biblio_use1"><path d="M70.78,654.11 C81.95,544.73 118.32,243.61 186,175 C205.86,154.87 229.3,138.81 254.64,126.05 " fill="none" id="biblio-to-use1" style="stroke:#181818;stroke-width:1.0;"/><polygon fill="#181818" points="258.74,123.54,248.8982,123.9117,254.2508,125.7417,252.4209,131.0944,258.74,123.54" style="stroke:#181818;stroke-width:1.0;"/></g><!--MD5=[701823b5cc39d4f764122425f697427a]
link biblio to use2--><g id="link_biblio_use2"><path d="M69.54,654.01 C76.2,584.24 100.16,440.38 186,363 C207.97,343.2 233.44,327.4 260.6,314.83 " fill="none" id="biblio-to-use2" style="stroke:#181818;stroke-width:1.0;"/><polygon fill="#181818" points="265.05,312.36,255.2015,312.4428,260.4982,314.429,258.5119,319.7257,265.05,312.36" style="stroke:#181818;stroke-width:1.0;"/></g><!--MD5=[068cd741ae31a54db1bd987f128d9f81]
link biblio to use3--><g id="link_biblio_use3"><path d="M80.59,654.11 C97.85,609.8 132.06,539.71 186,503 C225.59,476.06 272.62,458.69 319.9,447.64 " fill="none" id="biblio-to-use3" style="stroke:#181818;stroke-width:1.0;"/><polygon fill="#181818" points="324.67,446.33,315.0047,444.4375,319.7959,447.4449,316.7885,452.2361,324.67,446.33" style="stroke:#181818;stroke-width:1.0;"/></g><!--MD5=[ad4c9089b90929725831ffb73ca299b8]
link biblio to use4--><g id="link_biblio_use4"><path d="M126.38,705.39 C166.39,713.06 222.43,723.81 281.17,735.08 " fill="none" id="biblio-to-use4" style="stroke:#181818;stroke-width:1.0;"/><polygon fill="#181818" points="285.87,736.17,277.7849,730.5458,280.9596,735.2279,276.2775,738.4025,285.87,736.17" style="stroke:#181818;stroke-width:1.0;"/></g><!--MD5=[440553e15dc541e4db9c679a08209cd6]
link biblio to use5--><g id="link_biblio_use5"><path d="M126.38,682.61 C167.46,674.73 225.42,663.61 285.87,652.02 " fill="none" id="biblio-to-use5" style="stroke:#181818;stroke-width:1.0;"/><polygon fill="#181818" points="290.73,650.89,281.1375,648.6575,285.8196,651.8321,282.6449,656.5142,290.73,650.89" style="stroke:#181818;stroke-width:1.0;"/></g><!--MD5=[d4d102dd45da93fe8b10cc8e25693472]
link biblio to use6--><g id="link_biblio_use6"><path d="M80.39,733.68 C97.57,778.16 131.78,848.91 186,886 C225.81,913.23 273.18,930.79 320.78,941.94 " fill="none" id="biblio-to-use6" style="stroke:#181818;stroke-width:1.0;"/><polygon fill="#181818" points="325.59,943.27,317.7085,937.3639,320.7159,942.1551,315.9247,945.1625,325.59,943.27" style="stroke:#181818;stroke-width:1.0;"/></g><!--MD5=[09e7ee7ecbe78b2a226b415aa9bc3acb]
link biblio to use7--><g id="link_biblio_use7"><path d="M69.16,733.96 C75.23,804.37 98.3,950.33 186,1027 C214.06,1051.53 247.69,1069.26 283.2,1081.97 " fill="none" id="biblio-to-use7" style="stroke:#181818;stroke-width:1.0;"/><polygon fill="#181818" points="287.45,1083.81,280.2794,1077.0585,282.7314,1082.1563,277.6336,1084.6083,287.45,1083.81" style="stroke:#181818;stroke-width:1.0;"/></g><!--MD5=[4e53dd6dce0e830612475bd6d447ee65]
link biblio to use8--><g id="link_biblio_use8"><path d="M70.92,733.83 C82.21,840.06 118.42,1126.28 186,1188 C242.49,1239.59 324.56,1256.28 398.12,1258.95 " fill="none" id="biblio-to-use8" style="stroke:#181818;stroke-width:1.0;"/><polygon fill="#181818" points="402.85,1259.13,393.9801,1254.8493,397.8525,1258.9729,393.7288,1262.8453,402.85,1259.13" style="stroke:#181818;stroke-width:1.0;"/></g><!--MD5=[d96a19e6921f39fbb329a9e0c21f8c33]
@startuml UC_BIB

left to right direction

skinparam actorStyle awesome

actor "Biblioteca do ISEP" as biblio

"Como Biblioteca, sou responsável pelo processo de listagem de aquisição de monografias e publicações" as (use1)

"Como Biblioteca, sou responsável pela catalogação e organização num registo dos materiais adquiridos" as (use2)

"Como Biblioteca, desejo realizar o tratamento técnico de dissertações" as (use3)    

"Como Biblioteca, desejo servir os alunos com serviços de requisição/empréstimo dos materiais disponíveis" as (use5)

"Como Biblioteca, pretendo efetuar um controlo das requisições efetuadas através de um sistema informático" as (use4)

"Como Biblioteca, possuo um processo de controlo de dano e extravio" as (use6)

"Como Biblioteca, pretendo analisar e manifestar a decisão perante possíveis doações" as (use7)

"Como Biblioteca, promovo ações de infoliteracia" as (use8)


biblio - -> (use1)

biblio - -> (use2)

biblio - -> (use3)

biblio - -> (use4)

biblio - -> (use5)

biblio - -> (use6)

biblio - -> (use7)

biblio - -> (use8)


@enduml

PlantUML version 1.2022.7(Mon Aug 22 18:01:30 WEST 2022)
(GPL source distribution)
Java Runtime: OpenJDK Runtime Environment
JVM: OpenJDK 64-Bit Server VM
Default Encoding: UTF-8
Language: en
Country: PT
--></g></svg>